# xmcd
#
# Track frame offsets:
#	150
#	15596
#	28235
#	44455
#	59698
#	76428
#	94402
#	109627
#	127155
#	141899
#	157567
#	171622
#	186019
#	202848
#
# Disc length: 2913 seconds
#
# Revision: 0
# Processed by: cddbd v1.5.1PL0 Copyright (c) Steve Scherf et al.
# Submitted via: dBpowerAMP V4.0
#
DISCID=c10b5f0e
DTITLE=Lasse Stefanz - Röd Chevrolet
DYEAR=2004
DGENRE=Other
TTITLE0=En Bättre Värld
TTITLE1=Wait A Minute
TTITLE2=Olivia
TTITLE3=Min Röda Chevrolet
TTITLE4=Ingen Väg Tillbaka
TTITLE5=Hon Tror Hon Vet
TTITLE6=Lyckan Inom Räckhäll
TTITLE7=Gula Höstlöv
TTITLE8=Jag Ångrar Ingenting
TTITLE9=Forever, Someday
TTITLE10=Ta Vad Du Behöver
TTITLE11=Längtan Till Havet
TTITLE12=Det Regnar Och Regnar
TTITLE13=En Tid Av Stulen Lycka
EXTD=
EXTT0=
EXTT1=
EXTT2=
EXTT3=
EXTT4=
EXTT5=
EXTT6=
EXTT7=
EXTT8=
EXTT9=
EXTT10=
EXTT11=
EXTT12=
EXTT13=
PLAYORDER=
